<?xml version="1.0" encoding="utf-8"?>
<!-- Generator: Adobe Illustrator 27.2.0, SVG Export Plug-In . SVG Version: 6.00 Build 0)  -->
<svg version="1.1" id="Layer_1" xmlns="http://www.w3.org/2000/svg" xmlns:xlink="http://www.w3.org/1999/xlink" x="0px" y="0px"
	 viewBox="0 0 1080 1080" style="enable-background:new 0 0 1080 1080;" xml:space="preserve">
<style type="text/css">
	.st0{fill:#7D1131;}
	.st1{fill:#FFFFFA;}
	.st2{fill:#767678;}
	.st3{fill:#5A122A;}
</style>
<g>
	<circle class="st0" cx="540.07" cy="540.46" r="532.72"/>
</g>
<g>
	<g>
		<path class="st1" d="M133.77,545.01c129.96,92.01,22.55,106.75,106.91,148.4c-2.6,23.41-2.08,25.49,31.99,23.41
			c13.23,43.71,64.12,57.14,139.68,50.72c44.13,2.62,88.81,24.42,133.7,53.84c44.89-29.43,89.57-51.23,133.7-53.84
			c75.56,6.42,126.45-7.01,139.68-50.72c34.08,2.08,34.6,0,31.99-23.41c84.36-41.64-23.05-56.39,106.91-148.4
			C828.38,453,935.79,438.26,851.43,396.61c2.6-23.41,2.08-25.49-31.99-23.41c-13.23-43.71-64.12-57.14-139.68-50.72
			c-44.13-2.62-88.81-24.42-133.7-53.84c-44.89,29.43-89.57,51.23-133.7,53.84c-75.56-6.42-126.45,7.01-139.68,50.72
			c-34.08-2.08-34.6,0-31.99,23.41C156.33,438.26,263.73,453,133.77,545.01z"/>
	</g>
	<g>
		<path class="st1" d="M546.06,841.21l-9.09-5.96c-49.47-32.43-89.06-48.69-124.44-51.09c-41.33,3.41-73.61,0.97-98.68-7.47
			c-24.95-8.4-42.46-22.73-52.21-42.7c-13.33,0.4-24.06-0.78-31.49-8.58c-6.05-6.35-7.24-14.1-6.93-22.5
			c-34.02-19.48-36.35-37.62-35.61-58.9c0.61-17.64,1.38-39.59-63.41-85.46l-19.12-13.53l19.12-13.53
			c64.79-45.87,64.02-67.82,63.41-85.46c-0.74-21.28,1.59-39.42,35.61-58.9c-0.31-8.4,0.88-16.15,6.93-22.5
			c7.43-7.81,18.17-8.98,31.49-8.58c9.76-19.97,27.26-34.31,52.21-42.7c25.05-8.44,57.34-10.88,98.67-7.47
			c35.37-2.39,74.96-18.65,124.44-51.09l9.09-5.96l9.09,5.96c49.48,32.44,89.07,48.69,124.44,51.09
			c41.33-3.41,73.61-0.96,98.68,7.47c24.95,8.4,42.46,22.73,52.21,42.7c13.33-0.41,24.06,0.78,31.5,8.58
			c6.04,6.35,7.24,14.1,6.93,22.5c34.02,19.48,36.35,37.62,35.61,58.9c-0.61,17.64-1.38,39.59,63.41,85.46l19.12,13.53l-19.12,13.53
			c-64.79,45.87-64.02,67.82-63.41,85.46c0.74,21.28-1.59,39.42-35.61,58.9c0.31,8.4-0.88,16.15-6.93,22.5
			c-7.43,7.81-18.16,8.98-31.49,8.58c-9.76,19.97-27.26,34.3-52.21,42.7c-25.06,8.44-57.35,10.88-98.68,7.47
			c-35.38,2.39-74.96,18.65-124.44,51.09L546.06,841.21z M412.15,750.91l1.19,0.07c39.37,2.34,81.75,18.49,132.72,50.68
			c50.96-32.19,93.34-48.34,132.72-50.68l1.19-0.07l1.19,0.1c107.83,9.14,118.8-27.09,122.41-39.01l3.8-12.55l13.08,0.8
			c3.22,0.2,10.06,0.6,15.08,0.59c-0.18-2.01-0.41-4.11-0.58-5.62l-1.28-11.55l10.42-5.15c27.96-13.8,27.76-19.53,27.28-33.38
			c-0.96-27.56,3.2-56.11,59.21-100.15c-56-44.03-60.16-72.59-59.21-100.15c0.48-13.85,0.68-19.58-27.28-33.38l-10.42-5.15
			l1.28-11.55c0.17-1.51,0.4-3.61,0.58-5.62c-5.01,0-11.87,0.4-15.08,0.59l-13.08,0.8l-3.8-12.55c-3.61-11.91-14.57-48.16-122.41-39
			l-1.19,0.1l-1.19-0.07c-39.37-2.33-81.75-18.49-132.72-50.68c-50.97,32.19-93.35,48.34-132.72,50.68l-1.19,0.07l-1.19-0.1
			c-107.84-9.16-118.8,27.09-122.41,39l-3.8,12.55l-13.08-0.8c-3.22-0.2-9.99-0.59-15.08-0.59c0.18,2.01,0.41,4.11,0.58,5.62
			l1.28,11.55l-10.42,5.15c-27.96,13.8-27.76,19.53-27.28,33.38c0.96,27.56-3.2,56.12-59.21,100.15
			c56,44.03,60.16,72.59,59.21,100.15c-0.48,13.84-0.68,19.57,27.28,33.38l10.42,5.15l-1.28,11.55c-0.17,1.51-0.4,3.61-0.58,5.62
			c5.07,0.02,11.87-0.4,15.08-0.59l13.09-0.8l3.8,12.55c3.61,11.91,14.59,48.16,122.41,39.01L412.15,750.91z"/>
	</g>
</g>
<g>
	<path class="st0" d="M546.06,822.7l-0.61-0.4c-52.37-34.33-94.68-51.38-133.16-53.66c-81.45,6.94-127.45-9.64-140.42-50.67
		c-17.64,1.07-26.45,1.04-30.52-3.24c-3.47-3.64-3.04-9.95-1.86-20.68c-37.5-18.68-37.03-32.3-36.43-49.51
		c0.74-21.35,1.67-47.93-69.93-98.63l-1.27-0.9l1.27-0.9c71.6-50.69,70.68-77.27,69.93-98.63c-0.6-17.21-1.07-30.83,36.43-49.51
		c-1.18-10.73-1.61-17.04,1.86-20.68c4.07-4.28,12.88-4.3,30.52-3.24c12.96-41.02,58.96-57.6,140.58-50.67
		c38.32-2.28,80.63-19.34,133-53.67l0.61-0.4l0.61,0.4c52.37,34.33,94.68,51.38,133.16,53.66c81.47-6.93,127.45,9.65,140.41,50.67
		c17.64-1.06,26.45-1.04,30.52,3.24c3.47,3.64,3.04,9.95,1.85,20.68c37.5,18.68,37.03,32.3,36.43,49.51
		c-0.74,21.36-1.67,47.93,69.94,98.63l1.27,0.9l-1.27,0.9c-71.6,50.69-70.68,77.27-69.94,98.63c0.6,17.21,1.07,30.83-36.43,49.51
		c1.18,10.73,1.61,17.04-1.85,20.68c-4.07,4.27-12.89,4.3-30.52,3.24c-12.96,41.03-58.97,57.6-140.57,50.67
		c-38.32,2.28-80.63,19.34-133,53.67L546.06,822.7z M412.26,766.44c38.89,2.3,81.37,19.34,133.79,53.62
		c52.42-34.29,94.9-51.33,133.63-53.62c81.11,6.87,126.44-9.46,138.69-49.94l0.25-0.84l0.87,0.05c17.83,1.09,26.34,0.99,29.65-2.5
		c2.87-3.02,2.35-9.13,1.17-19.68l-0.08-0.77l0.69-0.34c36.92-18.23,36.49-30.63,35.89-47.8c-0.76-21.76-1.7-48.81,69.6-99.61
		c-71.3-50.8-70.35-77.85-69.6-99.61c0.6-17.17,1.03-29.57-35.89-47.8l-0.69-0.34l0.08-0.77c1.17-10.55,1.7-16.66-1.17-19.68
		c-3.32-3.49-11.82-3.59-29.65-2.5l-0.87,0.05l-0.25-0.84c-12.25-40.48-57.56-56.82-138.53-49.94
		c-38.89-2.29-81.37-19.34-133.79-53.62c-52.43,34.29-94.91,51.33-133.63,53.63c-81.12-6.87-126.44,9.46-138.69,49.94l-0.25,0.84
		l-0.87-0.05c-17.83-1.09-26.33-0.99-29.65,2.5c-2.87,3.02-2.35,9.13-1.18,19.68l0.09,0.77l-0.7,0.34
		c-36.92,18.23-36.49,30.63-35.89,47.8c0.76,21.76,1.7,48.81-69.6,99.61c71.3,50.8,70.35,77.85,69.6,99.61
		c-0.6,17.17-1.03,29.57,35.89,47.8l0.7,0.34l-0.09,0.77c-1.17,10.55-1.7,16.66,1.18,19.68c3.32,3.49,11.83,3.6,29.65,2.5l0.87-0.05
		l0.25,0.84C285.99,756.98,331.29,773.3,412.26,766.44z"/>
</g>
<g>
	<rect x="282.3" y="501.89" class="st2" width="508.52" height="4.42"/>
</g>
<g>
	<g>
		<path class="st2" d="M708.05,505.47l-3.47-2.74c30.96-39.25,65.32-63.37,105.03-73.73c0.75-0.2,1.55,0.02,2.11,0.57
			c0.55,0.55,0.78,1.35,0.59,2.1c-7.13,28.93-14.38,52.89-22.19,73.23l-4.13-1.58c7.41-19.31,14.33-41.92,21.12-69.04
			C769.89,444.88,737.45,468.2,708.05,505.47z"/>
	</g>
	<g>
		<path class="st2" d="M626.08,505.52l-3.39-2.84c44.57-53.32,94.95-83.22,154.02-91.42c0.7-0.1,1.41,0.15,1.9,0.66
			c0.49,0.51,0.71,1.22,0.59,1.92c-5.31,30.21-13.55,60.83-24.48,91.02l-4.16-1.51c10.49-28.94,18.47-58.29,23.75-87.27
			C717.66,424.72,669.15,454,626.08,505.52z"/>
	</g>
</g>
<g>
	<g>
		<path class="st2" d="M704.49,505.47c-29.4-37.27-61.83-60.6-99.06-71.21c6.79,27.14,13.71,49.75,21.12,69.04l-4.13,1.58
			c-7.8-20.32-15.06-44.28-22.19-73.23c-0.19-0.76,0.04-1.56,0.59-2.1c0.55-0.55,1.35-0.76,2.11-0.57
			c39.71,10.36,74.07,34.48,105.03,73.73L704.49,505.47z"/>
	</g>
	<g>
		<path class="st2" d="M786.46,505.52c-43.07-51.52-91.58-80.81-148.21-89.44c5.27,28.97,13.26,58.31,23.75,87.27l-4.16,1.51
			c-10.94-30.2-19.18-60.82-24.48-91.02c-0.12-0.7,0.1-1.41,0.59-1.92c0.49-0.51,1.2-0.75,1.9-0.66
			c59.06,8.2,109.44,38.1,154.02,91.42L786.46,505.52z"/>
	</g>
	<g>
		<path class="st2" d="M702.07,504.47c-26.01-38.74-49.2-88.93,2.81-133.57c0.83-0.71,2.05-0.71,2.88,0
			c51.88,44.53,28.81,94.61,2.91,133.27l-3.67-2.46c36.49-54.47,36.32-93.48-0.68-126.19c-37.09,32.8-37.23,71.9-0.58,126.49
			L702.07,504.47z"/>
	</g>
</g>
<g>
	<path class="st3" d="M287.37,680.27h-4.42V533.56c0-1.22,0.99-2.21,2.21-2.21h50.72v4.42h-48.51V680.27z"/>
</g>
<g>
	<rect x="285.16" y="618.75" class="st3" width="42.14" height="4.42"/>
</g>
<g>
	<path class="st3" d="M695.82,680.27h-6.63V533.56c0-1.83,1.49-3.32,3.32-3.32h50.72v6.63h-47.4V680.27z"/>
</g>
<g>
	<rect x="692.5" y="617.65" class="st3" width="42.14" height="6.63"/>
</g>
<g>
	<path class="st3" d="M808.97,680.72h-50.72c-1.83,0-3.32-1.49-3.32-3.32V533.56c0-1.83,1.49-3.32,3.32-3.32h50.72v6.63h-47.41
		v137.21h47.41V680.72z"/>
</g>
<g>
	<rect x="758.24" y="617.65" class="st3" width="42.14" height="6.63"/>
</g>
<g>
	<rect x="499.5" y="531.35" class="st3" width="4.42" height="150.48"/>
</g>
<g>
	
		<rect x="525.83" y="615.23" transform="matrix(0.7295 -0.6839 0.6839 0.7295 -304.3015 537.9606)" class="st3" width="4.42" height="77.02"/>
</g>
<g>
	<path class="st3" d="M654.3,680.76h-48.8c-1.83,0-3.32-1.49-3.32-3.32V531.22h6.63v142.9h45.49V680.76z"/>
</g>
<g>
	<rect x="667.34" y="531.22" class="st3" width="6.63" height="149.05"/>
</g>
<g>
	<path class="st3" d="M505.22,627.86c-1.24,0-2.46-0.05-3.68-0.14l0.33-4.41c1.1,0.08,2.22,0.13,3.35,0.13
		c24.13,0,43.76-19.63,43.76-43.76c0-24.13-19.63-43.77-43.76-43.77c-0.92,0-1.83,0.03-2.73,0.08l-0.27-4.41
		c0.99-0.06,1.99-0.09,3-0.09c26.57,0,48.19,21.62,48.19,48.19S531.79,627.86,505.22,627.86z"/>
</g>
<g>
	<path class="st3" d="M412.39,682.28c-41.68,0-75.6-33.91-75.6-75.59c0-41.68,33.91-75.6,75.6-75.6s75.6,33.91,75.6,75.6
		C487.99,648.37,454.07,682.28,412.39,682.28z M412.39,535.52c-39.25,0-71.17,31.93-71.17,71.17c0,39.24,31.93,71.17,71.17,71.17
		c39.24,0,71.17-31.93,71.17-71.17C483.56,567.44,451.64,535.52,412.39,535.52z"/>
</g>
<g>
	<path class="st2" d="M335.54,478.94c-1.57,0-2.91-0.16-4.01-0.49c-1.1-0.32-2.14-0.72-3.11-1.2v-3.61h0.2
		c0.95,0.89,2.03,1.58,3.23,2.07c1.2,0.49,2.36,0.73,3.48,0.73c1.59,0,2.79-0.33,3.61-1c0.81-0.66,1.22-1.54,1.22-2.63
		c0-0.86-0.21-1.57-0.64-2.11c-0.43-0.54-1.11-0.95-2.04-1.21c-0.67-0.19-1.28-0.35-1.83-0.48c-0.55-0.13-1.25-0.3-2.08-0.51
		c-0.75-0.19-1.42-0.44-2.01-0.74c-0.59-0.3-1.11-0.69-1.57-1.18c-0.45-0.48-0.79-1.04-1.04-1.68c-0.25-0.64-0.37-1.39-0.37-2.23
		c0-1.76,0.68-3.23,2.05-4.42c1.37-1.19,3.11-1.78,5.24-1.78c1.21,0,2.36,0.12,3.44,0.36c1.08,0.24,2.08,0.59,3.01,1.03v3.45h-0.22
		c-0.69-0.63-1.57-1.18-2.65-1.65c-1.08-0.47-2.21-0.71-3.39-0.71c-1.34,0-2.42,0.31-3.25,0.94c-0.82,0.63-1.24,1.45-1.24,2.47
		c0,0.92,0.24,1.65,0.73,2.2c0.49,0.54,1.19,0.94,2.11,1.19c0.61,0.16,1.36,0.35,2.24,0.56c0.88,0.21,1.62,0.4,2.2,0.58
		c1.49,0.46,2.58,1.14,3.27,2.07c0.69,0.92,1.03,2.06,1.03,3.4c0,0.84-0.17,1.68-0.52,2.5c-0.34,0.82-0.83,1.52-1.45,2.09
		c-0.7,0.63-1.49,1.12-2.36,1.46C337.95,478.77,336.86,478.94,335.54,478.94z"/>
	<path class="st2" d="M356.83,478.55v-21.67h13.54v2.56h-10.66v5.94h9.94v2.56h-9.94v8.05h10.66v2.56H356.83z"/>
	<path class="st2" d="M402.84,478.55h-2.88v-18.67l-5.65,12.7h-1.74l-5.6-12.7v18.67h-2.69v-21.67h3.93l5.41,12.06l5.22-12.06h4
		V478.55z"/>
	<path class="st2" d="M425.53,478.55h-8.41v-2.21h2.76V459.1h-2.76v-2.21h8.41v2.21h-2.77v17.24h2.77V478.55z"/>
	<path class="st2" d="M447.97,472.92c0,1.9-0.58,3.37-1.74,4.39c-1.16,1.03-2.71,1.54-4.66,1.54c-0.47,0-1.09-0.04-1.87-0.12
		c-0.78-0.08-1.43-0.18-1.96-0.3v-2.75h0.16c0.4,0.14,0.89,0.29,1.48,0.45c0.59,0.17,1.19,0.25,1.8,0.25c0.89,0,1.6-0.1,2.13-0.31
		c0.53-0.2,0.92-0.49,1.17-0.87c0.26-0.39,0.43-0.86,0.5-1.43c0.07-0.56,0.11-1.21,0.11-1.95v-12.64h-4.58v-2.3h7.46V472.92z"/>
	<path class="st2" d="M478.27,459.37c0.82,0.95,1.46,2.13,1.92,3.54c0.46,1.41,0.68,3.01,0.68,4.82c0,1.76-0.22,3.34-0.67,4.76
		c-0.45,1.42-1.09,2.6-1.93,3.56c-0.88,1.01-1.92,1.75-3.09,2.23c-1.18,0.48-2.48,0.72-3.89,0.72c-1.46,0-2.78-0.25-3.96-0.74
		c-1.17-0.49-2.18-1.23-3.03-2.21c-0.83-0.96-1.47-2.14-1.92-3.55c-0.45-1.41-0.67-3-0.67-4.77c0-1.82,0.22-3.42,0.68-4.8
		c0.45-1.38,1.09-2.56,1.93-3.55c0.83-0.96,1.84-1.69,3.02-2.19c1.18-0.5,2.5-0.75,3.95-0.75c1.47,0,2.8,0.26,3.99,0.77
		C476.45,457.72,477.45,458.44,478.27,459.37z M477.87,467.73c0-1.44-0.16-2.71-0.47-3.81c-0.31-1.11-0.75-2.02-1.31-2.75
		c-0.57-0.75-1.27-1.31-2.07-1.68c-0.81-0.37-1.72-0.56-2.73-0.56c-1.05,0-1.96,0.18-2.74,0.55c-0.78,0.36-1.47,0.93-2.07,1.69
		c-0.57,0.74-1.01,1.66-1.32,2.78c-0.3,1.12-0.46,2.38-0.46,3.78c0,2.84,0.6,5.02,1.79,6.52c1.19,1.51,2.79,2.26,4.8,2.26
		c2.01,0,3.61-0.75,4.79-2.26C477.28,472.74,477.87,470.57,477.87,467.73z"/>
	<path class="st2" d="M502.32,478.55h-8.41v-2.21h2.76V459.1h-2.76v-2.21h8.41v2.21h-2.77v17.24h2.77V478.55z"/>
	<path class="st2" d="M514.26,478.55l7.3-21.67h3.55l7.3,21.67h-3.04l-1.96-6.05h-8.28l-1.96,6.05H514.26z M526.61,470.04
		l-3.35-10.21l-3.33,10.21H526.61z"/>
	<path class="st2" d="M551.18,478.94c-1.57,0-2.91-0.16-4.01-0.49c-1.1-0.32-2.14-0.72-3.11-1.2v-3.61h0.2
		c0.95,0.89,2.03,1.58,3.23,2.07c1.2,0.49,2.36,0.73,3.48,0.73c1.59,0,2.79-0.33,3.61-1c0.81-0.66,1.22-1.54,1.22-2.63
		c0-0.86-0.21-1.57-0.64-2.11c-0.43-0.54-1.11-0.95-2.04-1.21c-0.67-0.19-1.28-0.35-1.83-0.48c-0.55-0.13-1.25-0.3-2.08-0.51
		c-0.75-0.19-1.42-0.44-2.01-0.74c-0.59-0.3-1.11-0.69-1.57-1.18c-0.45-0.48-0.79-1.04-1.04-1.68c-0.25-0.64-0.37-1.39-0.37-2.23
		c0-1.76,0.68-3.23,2.05-4.42c1.37-1.19,3.11-1.78,5.24-1.78c1.21,0,2.36,0.12,3.44,0.36c1.08,0.24,2.08,0.59,3.01,1.03v3.45h-0.22
		c-0.69-0.63-1.57-1.18-2.65-1.65c-1.08-0.47-2.21-0.71-3.39-0.71c-1.34,0-2.42,0.31-3.25,0.94c-0.82,0.63-1.24,1.45-1.24,2.47
		c0,0.92,0.24,1.65,0.73,2.2c0.49,0.54,1.19,0.94,2.11,1.19c0.61,0.16,1.36,0.35,2.24,0.56c0.88,0.21,1.62,0.4,2.2,0.58
		c1.49,0.46,2.58,1.14,3.27,2.07c0.69,0.92,1.03,2.06,1.03,3.4c0,0.84-0.17,1.68-0.52,2.5c-0.34,0.82-0.83,1.52-1.45,2.09
		c-0.7,0.63-1.49,1.12-2.36,1.46C553.6,478.77,552.5,478.94,551.18,478.94z"/>
</g>
</svg>
